<?xml version="1.0" encoding="UTF-8" standalone="no"?>
<!-- Created with Inkscape (http://www.inkscape.org/) -->

<svg
   version="1.1"
   id="svg1"
   width="64"
   height="64"
   viewBox="0 0 63.999999 64.000001"
   sodipodi:docname="icon.svg"
   inkscape:version="1.4 (e7c3feb100, 2024-10-09)"
   xmlns:inkscape="http://www.inkscape.org/namespaces/inkscape"
   xmlns:sodipodi="http://sodipodi.sourceforge.net/DTD/sodipodi-0.dtd"
   xmlns="http://www.w3.org/2000/svg"
   xmlns:svg="http://www.w3.org/2000/svg">
  <defs
     id="defs1" />
  <sodipodi:namedview
     id="namedview1"
     pagecolor="#ffffff"
     bordercolor="#000000"
     borderopacity="0.25"
     inkscape:showpageshadow="2"
     inkscape:pageopacity="0.0"
     inkscape:pagecheckerboard="0"
     inkscape:deskcolor="#d1d1d1"
     inkscape:zoom="5.2123436"
     inkscape:cx="27.243024"
     inkscape:cy="52.663451"
     inkscape:window-width="1920"
     inkscape:window-height="1050"
     inkscape:window-x="0"
     inkscape:window-y="20"
     inkscape:window-maximized="1"
     inkscape:current-layer="g1" />
  <g
     inkscape:groupmode="layer"
     inkscape:label="Image"
     id="g1"
     transform="translate(-135.46876,-40.567765)">
    <path
       style="fill:#333333;stroke-width:0.103655"
       d="m 176.25021,71.476939 c -0.16716,-0.116572 -0.3469,-0.410448 -0.46258,-0.756373 -0.10406,-0.311151 -0.31267,-0.939037 -0.46361,-1.3953 -0.15092,-0.456264 -0.36594,-1.093079 -0.47782,-1.415148 -0.11187,-0.322066 -0.31112,-0.914963 -0.44278,-1.31755 -0.13167,-0.402584 -0.32948,-0.995483 -0.43959,-1.317551 -0.1101,-0.322067 -0.33193,-0.980843 -0.49297,-1.463944 -0.16103,-0.483103 -0.38433,-1.141879 -0.4962,-1.463945 -0.11186,-0.322068 -0.31011,-0.914967 -0.44056,-1.31755 -0.41406,-1.277917 -0.78394,-2.378563 -0.93472,-2.781497 -0.14553,-0.38889 -0.48953,-1.399739 -1.01295,-2.97669 -0.15144,-0.456263 -0.34289,-1.005241 -0.42542,-1.219953 -0.0825,-0.214712 -0.22477,-0.631938 -0.31608,-0.927167 -0.0913,-0.295228 -0.26544,-0.822248 -0.38697,-1.171156 -0.46235,-1.327452 -0.80036,-2.315683 -1.00142,-2.927889 -0.11459,-0.348908 -0.30736,-0.919847 -0.42836,-1.268753 -0.43728,-1.260901 -1.24461,-3.664233 -1.295,-3.855057 -0.0302,-0.114668 0.0439,-0.285782 0.18006,-0.414784 0.22962,-0.217733 0.258,-0.219591 3.35266,-0.219591 2.8098,0 3.14447,0.01703 3.35545,0.170792 0.18166,0.132379 0.41942,0.796419 1.05715,2.95229 0.45254,1.529824 0.89669,3.001089 0.98702,3.269478 0.0903,0.26839 0.50664,1.651818 0.92515,3.074284 0.41852,1.422469 0.79325,2.696101 0.83275,2.830295 0.33903,1.151857 0.67113,2.2496 1.10725,3.659864 0.63777,2.062314 0.89417,2.927632 1.13364,3.82583 0.26163,0.981392 0.40973,1.074294 0.56885,0.356848 0.0696,-0.314387 0.17829,-0.703369 0.24124,-0.864401 0.063,-0.161035 0.20392,-0.62218 0.31325,-1.024763 0.10932,-0.402584 0.32376,-1.149196 0.47653,-1.659137 0.3383,-1.129341 1.04039,-3.525678 1.62985,-5.562993 0.24075,-0.832009 0.56229,-1.929968 0.71455,-2.43991 0.15226,-0.509941 0.36794,-1.256551 0.47927,-1.659136 0.17941,-0.648891 0.80043,-2.751804 1.44105,-4.879818 0.12119,-0.402585 0.28873,-0.971404 0.37231,-1.264039 0.0836,-0.292638 0.23991,-0.589086 0.34742,-0.658776 0.14952,-0.09692 0.93921,-0.126708 3.35917,-0.126708 2.73008,0 3.18743,0.02103 3.33681,0.153453 0.23391,0.207363 0.2352,0.202811 -1.46304,5.165546 -0.23878,0.697815 -0.54186,1.598143 -0.67349,2.000727 -0.31498,0.963286 -0.74574,2.248519 -0.99769,2.976688 -0.11144,0.322068 -0.25965,0.761252 -0.32937,0.975963 -0.0696,0.214712 -0.22328,0.675855 -0.34126,1.024762 -0.11799,0.348907 -0.33824,1.007683 -0.48945,1.463946 -0.15121,0.456262 -0.36956,1.115037 -0.48524,1.463945 -0.11567,0.348908 -0.31457,0.941805 -0.44197,1.317551 -0.12743,0.375746 -0.3248,0.968644 -0.43863,1.317552 -0.34702,1.063717 -1.1862,3.544243 -1.3042,3.855055 -0.0611,0.161035 -0.2439,0.688054 -0.40616,1.171156 -0.6144,1.829451 -1.24992,3.679323 -1.55552,4.527843 -0.14294,0.39687 -0.34632,0.779759 -0.45196,0.850862 -0.14966,0.100729 -0.94863,0.129968 -3.61755,0.132385 -3.23446,0.0029 -3.44073,-0.0075 -3.69887,-0.187536 z"
       id="path15" />
    <path
       style="fill:#333333;stroke-width:0.103655"
       d="m 144.74024,102.3561 c -0.23911,-0.14848 -0.24467,-0.19676 -0.2446,-2.12272 l 8e-5,-1.970794 0.52913,-0.780774 c 0.58762,-0.86709 1.61034,-2.349255 2.79473,-4.050246 0.42983,-0.617296 0.83617,-1.211323 0.90302,-1.320057 0.0669,-0.108736 0.58278,-0.85535 1.14655,-1.659141 0.56376,-0.803789 1.08294,-1.549273 1.15373,-1.656628 0.0708,-0.107357 0.33275,-0.480663 0.58217,-0.82957 0.2494,-0.348907 0.79153,-1.139438 1.20474,-1.756733 0.41321,-0.617298 0.95778,-1.407829 1.21016,-1.756736 1.21761,-1.683318 3.37987,-4.871533 3.34282,-4.928928 -0.0229,-0.03556 -2.77361,-0.07199 -6.11259,-0.08097 -5.80128,-0.01558 -6.08115,-0.02458 -6.30264,-0.202238 -0.22254,-0.17849 -0.2318,-0.27332 -0.2318,-2.373128 0,-2.141232 0.0489,-2.492712 0.37428,-2.685261 0.0666,-0.03944 4.66366,-0.07238 10.21565,-0.0732 l 10.09452,-0.0014 0.17138,0.21691 c 0.14085,0.178261 0.17138,0.554954 0.17138,2.114146 0,1.869228 -0.004,1.903848 -0.28909,2.344995 -0.40666,0.629878 -3.51759,5.119286 -3.99457,5.764598 -0.21735,0.294039 -0.42024,0.579506 -0.45087,0.634376 -0.0666,0.119323 -0.61399,0.924177 -1.24658,1.832932 -1.9758,2.83836 -3.11566,4.466499 -3.3304,4.756984 -0.13888,0.187874 -0.72346,1.022322 -1.29906,1.85433 -0.5756,0.832009 -1.40851,2.010919 -1.85091,2.619789 -0.44242,0.608878 -0.82089,1.14688 -0.84109,1.195561 -0.0217,0.05236 2.6233,0.08849 6.46781,0.08849 6.35769,0 6.50946,0.0043 6.72466,0.195198 0.20653,0.183088 0.22018,0.325321 0.22018,2.293515 0,1.96818 -0.0136,2.11041 -0.22018,2.29351 -0.21702,0.19238 -0.36697,0.19518 -10.43406,0.19518 -9.06619,0 -10.24137,-0.017 -10.45855,-0.15193 z"
       id="path16" />
    <path
       style="fill:#333333;stroke-width:0.103655"
       d="m 168.96094,102.3561 -0.24467,-0.15193 V 88.309195 c 0,-12.76601 0.0147,-13.90802 0.18111,-14.05554 0.16488,-0.146166 0.72521,-0.156842 6.24762,-0.119039 6.65637,0.04556 6.63017,0.04345 8.87378,0.717081 3.13535,0.941367 5.23117,2.941877 6.17312,5.892345 0.24219,0.758601 0.26423,1.000726 0.25757,2.830292 -0.007,1.867392 -0.0261,2.053083 -0.28917,2.786345 -0.7904,2.20257 -2.12545,3.734507 -4.05691,4.655202 -0.47878,0.228228 -0.87122,0.475195 -0.87206,0.548814 -8.3e-4,0.07362 0.6126,1.193539 1.36325,2.488707 2.59692,4.480742 4.46996,7.855448 4.46996,8.053588 0,0.10943 -0.0958,0.24443 -0.21293,0.30001 -0.13223,0.0628 -1.3796,0.10103 -3.29051,0.10103 -2.77035,0 -3.10044,-0.017 -3.30665,-0.1708 -0.21905,-0.1633 -0.47093,-0.58308 -1.3908,-2.31791 -0.22768,-0.429425 -0.62554,-1.176029 -0.88409,-1.659139 -0.25855,-0.483098 -0.81682,-1.537138 -1.24058,-2.342312 -0.42376,-0.805166 -1.02218,-1.936067 -1.32983,-2.513105 l -0.55934,-1.049162 h -1.59892 -1.59895 v 4.786656 4.786662 l -0.27023,0.23956 -0.27022,0.23955 h -2.95295 c -2.49446,0 -2.99091,-0.0236 -3.1976,-0.15193 z m 11.7001,-14.928113 c 1.53146,-0.349944 2.33275,-0.915049 2.95626,-2.084877 0.32345,-0.606887 0.34458,-0.715051 0.34548,-1.768776 8.1e-4,-0.961415 -0.0372,-1.206326 -0.26505,-1.707936 -0.63559,-1.399192 -1.67694,-2.164809 -3.25291,-2.391604 -0.36548,-0.0526 -1.5934,-0.09596 -2.7287,-0.09637 l -2.06418,-7.63e-4 v 4.163335 4.163335 l 2.17428,-0.06272 c 1.38154,-0.03984 2.4151,-0.117749 2.83482,-0.213654 z"
       id="path17" />
    <path
       style="fill:#333333;stroke-width:0.103655"
       d="m 144.1663,71.472386 c -0.21812,-0.193351 -0.2202,-0.325321 -0.2202,-13.988066 V 43.69145 l 0.26281,-0.218877 0.26281,-0.218876 6.0949,0.03672 c 5.86168,0.03531 6.13863,0.04525 7.23806,0.259957 1.67795,0.327679 3.17455,0.86288 4.08611,1.461236 2.22247,1.458862 3.43384,3.191537 3.96601,5.672759 0.0518,0.241551 0.0942,1.075999 0.0942,1.85433 0,1.421442 -0.0465,1.797421 -0.35591,2.879093 -0.38295,1.338697 -1.29627,2.694505 -2.48263,3.685429 -0.64519,0.53891 -1.96505,1.340784 -2.20689,1.340784 -0.0487,0 -0.1469,0.06214 -0.21799,0.138077 -0.10345,0.110513 0.46755,1.193019 2.86015,5.422255 2.88788,5.104684 2.98284,5.290613 2.79593,5.473712 -0.18288,0.179145 -0.36429,0.189536 -3.30881,0.189536 -2.09516,0 -3.20541,-0.03639 -3.39042,-0.111118 -0.15131,-0.06111 -0.35967,-0.269728 -0.46305,-0.463584 -0.10337,-0.193854 -0.50208,-0.939158 -0.88602,-1.656232 -0.38396,-0.717073 -0.6981,-1.316808 -0.6981,-1.332747 0,-0.01594 -0.24275,-0.483284 -0.53948,-1.038544 -0.29672,-0.555261 -0.79786,-1.514627 -1.11364,-2.131923 -0.31577,-0.617296 -0.83846,-1.616439 -1.16153,-2.220318 l -0.58741,-1.097958 h -1.71176 -1.71174 v 4.83102 c 0,4.700891 -0.006,4.836276 -0.22019,5.026211 -0.2093,0.185554 -0.36697,0.195193 -3.19262,0.195193 -2.82564,0 -2.9833,-0.0097 -3.1926,-0.195193 z m 11.94476,-14.879824 c 2.2132,-0.52255 3.25335,-1.701566 3.33917,-3.784974 0.0316,-0.769308 -0.004,-1.06544 -0.18882,-1.549559 -0.59012,-1.549132 -1.72504,-2.392855 -3.53022,-2.624425 -0.39656,-0.05087 -1.67469,-0.09336 -2.84026,-0.09443 l -2.11923,-0.002 v 4.162189 4.16219 l 2.33941,-0.05655 c 1.61349,-0.039 2.54437,-0.104944 2.99995,-0.212509 z"
       id="path18" />
    <path
       style="fill:none;stroke-width:0.54264"
       d="M -131.04761,447.13551 V 68.372664 H 479.96525 1090.9781 V 447.13551 825.89837 H 479.96525 -131.04761 Z m 548.46793,270.3364 c 1.35123,-0.75199 2.45518,-2.63984 3.60471,-6.16407 1.38943,-4.25967 5.12567,-16.36266 6.75554,-21.88348 0.88109,-2.98452 4.41709,-14.70555 7.85786,-26.04673 3.44072,-11.34118 9.71364,-32.34136 13.93983,-46.66706 9.71462,-32.93024 17.79274,-60.07715 26.40108,-88.72167 9.55345,-31.78948 9.50022,-31.48822 5.74525,-32.53104 -2.19519,-0.60965 -40.47238,-0.69718 -43.21396,-0.0988 -2.3072,0.50355 -3.36584,2.36801 -5.12442,9.02502 -0.86725,3.28298 -2.73659,10.36443 -4.15397,15.73657 -1.41743,5.37214 -3.25541,12.3315 -4.08434,15.46525 -0.82894,3.13374 -2.90134,11.19195 -4.60539,17.90712 -1.70405,6.71517 -3.92736,15.38385 -4.94074,19.26373 -1.01338,3.87988 -2.57607,9.86248 -3.47262,13.29468 -0.89661,3.4322 -4.31214,16.61836 -7.5901,29.30257 -6.15357,23.81154 -9.37063,36.17017 -10.36425,39.81514 -0.39681,1.45569 -0.74646,1.92811 -1.13753,1.53703 -0.31055,-0.31055 -2.09329,-6.38427 -3.96163,-13.49709 -1.86836,-7.11287 -4.42147,-16.71739 -5.67361,-21.34339 -2.65978,-9.82662 -8.67191,-32.45823 -13.83871,-52.09346 -2.00263,-7.61053 -5.83284,-22.01763 -8.51159,-32.01577 -11.04663,-41.23046 -10.72072,-40.15919 -12.72354,-41.82282 -0.76315,-0.63391 -4.68387,-0.80588 -21.60573,-0.94769 -13.6308,-0.11423 -21.3438,0.025 -22.64135,0.40871 -2.94718,0.87152 -3.88017,3.10866 -2.82142,6.7652 0.44063,1.52178 3.24314,10.94717 6.22781,20.94531 4.99068,16.71796 8.05117,26.88763 17.55512,58.33382 9.4387,31.2303 13.89007,46.00194 15.12576,50.19422 0.74775,2.53684 3.83245,12.91484 6.8549,23.06221 3.02244,10.14737 6.83622,22.96724 8.47507,28.48861 1.63885,5.52136 3.67707,12.35863 4.52939,15.19392 5.61576,18.6811 5.70925,18.86738 9.82873,19.58362 4.14983,0.72144 46.16498,0.28901 47.56385,-0.48963 z m 223.01161,0.0252 c 2.1234,-1.21405 2.40552,-3.75778 2.22433,-20.05462 -0.2049,-18.4273 0.14245,-17.53938 -7.09605,-18.14155 -2.45832,-0.20446 -22.7083,-0.39119 -45.00001,-0.41495 -22.29166,-0.0237 -40.65601,-0.24653 -40.80969,-0.49511 -0.15362,-0.24864 0.28505,-1.28644 0.9748,-2.30622 2.6095,-3.85823 36.80365,-58.83001 49.5902,-79.72312 4.47494,-7.31208 9.43098,-15.37029 11.01338,-17.90713 7.26622,-11.64891 20.76342,-33.57108 25.09211,-40.75454 5.86198,-9.72801 6.03796,-10.59447 5.64845,-27.80922 -0.24256,-10.72089 -0.37116,-11.99562 -1.34108,-13.29468 l -1.0728,-1.43683 h -69.94198 c -38.46809,0 -70.5945,0.18303 -71.39207,0.40674 -2.59768,0.72862 -2.87111,2.72595 -2.88159,21.0501 -0.0105,18.49015 0.085,19.01587 3.58105,19.71509 0.97062,0.19412 20.16635,0.51238 42.65727,0.70723 22.49086,0.19487 41.0141,0.55107 41.16273,0.79158 0.14863,0.2405 -0.1349,1.22074 -0.63006,2.17829 -1.26847,2.45293 -11.8989,20.0215 -19.33302,31.951 -3.44636,5.5304 -9.30454,15.05374 -13.01821,21.16297 -3.71361,6.10922 -11.41541,18.67751 -17.11503,27.92953 -5.69968,9.25201 -16.85115,27.44402 -24.78108,40.42669 l -14.41806,23.60485 0.006,13.566 c 0.006,13.22697 0.34371,17.13028 1.59173,18.38047 1.09369,1.09554 12.30116,1.26799 78.69894,1.21085 51.68235,-0.0445 65.64004,-0.20029 66.58993,-0.74342 z m 70.95129,-0.95884 1.91731,-1.91737 v -37.70638 -37.70644 l 11.18077,0.14668 11.18083,0.14667 6.23429,13.29469 c 26.26612,56.01267 28.98279,61.60979 30.77963,63.41483 0.70218,0.70538 2.34226,1.48835 3.64465,1.73992 2.85645,0.55181 33.20073,0.58448 39.16212,0.0422 4.43316,-0.40329 5.23653,-0.894 5.25216,-3.20825 0.005,-0.67586 -9.14875,-19.45105 -20.3407,-41.72257 -11.19196,-22.27158 -20.34901,-40.69471 -20.34901,-40.94041 0,-0.24566 2.13665,-1.70422 4.7481,-3.24119 7.16529,-4.21719 10.92389,-7.05335 14.81809,-11.18132 7.77929,-8.24647 14.10311,-20.63703 16.29082,-31.91924 0.97393,-5.02277 1.011,-28.42499 0.0528,-33.37237 -1.04122,-5.3764 -3.74091,-13.31825 -6.28193,-18.47996 -8.22251,-16.70282 -20.94591,-27.47485 -39.93804,-33.81285 -13.71947,-4.57841 -17.51008,-4.86647 -64.68901,-4.91601 -35.62113,-0.0374 -37.88497,0.0168 -38.79877,0.92925 -0.92482,0.92343 -0.97703,6.1187 -1.11003,110.54175 l -0.13956,109.57278 1.22484,0.66978 c 2.22358,1.21589 5.37936,1.40663 24.40465,1.47522 l 18.83862,0.0679 z m -524.24919,0.25287 1.42613,-1.1218 0.13931,-38.08395 0.13932,-38.08396 12.35461,-0.14586 12.35461,-0.14586 0.48002,1.23114 c 0.26402,0.67711 2.21323,4.83899 4.33158,9.2486 2.11835,4.4096 3.85155,8.13005 3.85155,8.26766 0,0.13762 1.34303,3.07601 2.98452,6.52981 1.64148,3.45385 2.98452,6.39214 2.98452,6.52959 0,0.1375 1.22094,2.78119 2.7132,5.875 1.49226,3.09376 2.7132,5.75367 2.7132,5.91093 0,0.15725 1.83141,4.10583 4.0698,8.77465 2.23839,4.66877 4.0698,8.59119 4.0698,8.71648 0,0.1253 1.69055,3.75866 3.75677,8.07417 3.03372,6.33608 4.07294,8.00974 5.39946,8.69575 2.46139,1.27282 44.25574,1.2771 46.07233,0.005 0.66331,-0.46461 1.20602,-1.28557 1.20602,-1.82441 0,-0.53884 -9.12373,-19.14429 -20.27495,-41.34555 -11.15123,-22.2012 -20.42703,-40.85424 -20.61289,-41.45114 -0.28242,-0.90697 0.23114,-1.37999 3.12582,-2.87903 13.51115,-6.99702 24.83325,-19.31039 29.28592,-31.84994 0.52989,-1.49226 1.16827,-3.20158 1.41863,-3.79848 0.46538,-1.10954 0.76462,-2.15346 1.71104,-5.96905 2.50463,-10.09768 2.7245,-29.39613 0.4374,-38.39179 -2.03683,-8.01127 -2.22482,-8.54542 -5.27729,-14.99478 -3.95365,-8.3534 -7.6668,-13.56671 -13.8146,-19.39584 -9.9544,-9.43844 -22.99668,-15.55282 -38.67402,-18.13085 -8.32906,-1.36965 -16.84859,-1.60686 -52.97325,-1.47491 l -38.14718,0.13934 -1.2425,1.84383 -1.2425,1.84383 V 606.7879 c 0,80.61087 0.15745,107.69383 0.63127,108.58343 1.33841,2.51297 1.27973,2.50645 22.76474,2.52463 19.82478,0.0168 20.45248,-0.015 21.83761,-1.10454 z m 486.44518,-270.4925 c 18.62401,-1.70634 26.83193,-3.16323 36.94739,-6.55805 13.19479,-4.42827 22.35401,-9.99859 31.54655,-19.18555 11.34547,-11.33855 18.02505,-23.54543 25.24417,-46.13331 4.93244,-15.43319 7.42538,-25.97237 13.2497,-56.0148 0.90995,-4.69358 2.1736,-9.94363 2.80805,-11.66677 1.70476,-4.62984 4.91019,-7.4612 11.73248,-10.36318 6.92859,-2.94721 8.56048,-4.60185 9.01081,-9.13649 1.2796,-12.88445 0.73593,-32.05168 -0.98359,-34.676 -2.16052,-3.29736 -8.40034,-4.64852 -42.35323,-9.17111 -38.41681,-5.11719 -63.99583,-6.78334 -104.18691,-6.78647 -46.88097,-0.004 -76.1302,3.05961 -100.89771,10.56698 -11.35789,3.44273 -18.98215,6.7934 -31.5065,13.8463 -3.58142,2.01682 -7.24707,3.82294 -8.14584,4.0136 -0.89883,0.19065 -8.71285,0.0945 -17.36449,-0.21368 -22.08236,-0.78659 -39.71654,-0.78695 -54.27075,-10e-4 -9.54835,0.51556 -13.18501,0.52634 -15.42612,0.0457 -1.61278,-0.34589 -6.24654,-2.38876 -10.29719,-4.53972 -16.66841,-8.85123 -27.26139,-12.76711 -45.01365,-16.64009 -7.97084,-1.73899 -23.22612,-4.11862 -31.53774,-4.91949 -32.70656,-3.15147 -95.21113,-2.62636 -128.60573,1.08044 -15.71184,1.74401 -32.91686,3.96065 -42.05461,5.41818 -20.50587,3.27081 -25.41419,4.36456 -27.22637,6.06701 -2.39064,2.24589 -2.61954,4.0718 -2.60785,20.803 0.0118,16.87635 0.22987,18.54264 2.75785,21.07061 0.74772,0.74774 3.61617,2.2339 6.37433,3.3026 9.14003,3.54147 10.85141,6.49942 14.46833,25.00705 4.32672,22.13961 9.39851,42.57069 12.96701,52.236 0.91046,2.46601 2.25138,6.25093 2.9798,8.41092 1.66427,4.93509 6.91681,15.94908 10.71838,22.47522 5.59081,9.59775 14.64111,19.50774 22.91313,25.08963 17.92658,12.09673 43.79629,17.40996 84.71847,17.39982 33.36879,-0.008 51.662,-2.76841 70.27346,-10.60311 29.22012,-12.30053 48.91247,-38.47721 61.00548,-81.09347 2.77614,-9.78316 4.48741,-17.76543 6.33087,-29.53001 1.86147,-11.87954 2.9143,-16.55554 4.38274,-19.46578 1.52276,-3.01772 5.02029,-6.26513 8.5098,-7.90114 l 3.06483,-1.43689 h 19.53504 c 19.02345,0 19.61433,0.0321 22.5626,1.22528 8.25714,3.3417 10.10418,7.29122 13.51136,28.89125 3.98483,25.26171 11.52384,48.38058 21.83541,66.95987 11.72825,21.13189 28.3084,36.31424 47.57978,43.5686 13.844,5.21134 33.88544,8.4675 59.20215,9.61866 7.54183,0.34293 27.21129,-0.23254 36.24831,-1.06052 z"
       id="path19" />
    <path
       style="fill:#333333;stroke-width:0.146589"
       d="m 144.0971,71.522386 c -0.14286,-0.126627 -0.18684,-3.437592 -0.18684,-14.061353 0,-11.868103 0.0324,-13.919579 0.2222,-14.059202 0.1656,-0.121846 1.82095,-0.15086 6.5001,-0.11393 5.36966,0.04238 6.45808,0.08584 7.52342,0.300458 3.19074,0.642775 5.44971,2.161239 6.78295,4.559467 0.76339,1.373164 1.07322,2.638389 1.07674,4.396883 0.007,3.362259 -1.6113,6.149563 -4.41299,7.602103 -1.00023,0.518572 -1.01693,0.536699 -0.83249,0.904149 0.10352,0.206233 1.34883,2.419968 2.76732,4.919416 3.06199,5.395275 3.07586,5.423179 2.77816,5.59025 -0.12069,0.06773 -1.65762,0.124112 -3.4154,0.125272 -2.64335,0.0018 -3.25578,-0.03503 -3.54198,-0.212744 -0.1903,-0.118174 -0.34601,-0.268523 -0.34601,-0.334108 0,-0.06559 -0.58426,-1.226627 -1.29837,-2.58009 -0.71409,-1.353461 -1.80954,-3.43907 -2.43432,-4.634686 l -1.13595,-2.173847 h -1.69149 -1.69149 v 4.803168 c 0,3.551767 -0.0485,4.846321 -0.18683,4.968794 -0.26385,0.233905 -6.21289,0.233905 -6.47673,0 z M 155.47717,56.64057 c 2.62381,-0.336324 3.93897,-1.785202 3.81839,-4.206638 -0.0658,-1.32096 -0.50346,-2.20652 -1.44286,-2.919364 -0.9154,-0.69462 -1.83361,-0.887807 -4.63991,-0.976192 l -2.45213,-0.07723 v 4.160242 4.160239 l 1.82937,-0.0028 c 1.00615,-0.0014 2.30537,-0.06374 2.88714,-0.138323 z"
       id="path34" />
  </g>
</svg>
