<?xml version="1.0" encoding="UTF-8" standalone="no"?>
<!-- Created with Inkscape (http://www.inkscape.org/) -->

<svg
   version="1.1"
   id="svg1"
   width="679.15704"
   height="223.65871"
   viewBox="0 0 679.15704 223.65871"
   sodipodi:docname="logo-light.svg"
   inkscape:version="1.4 (e7c3feb100, 2024-10-09)"
   xmlns:inkscape="http://www.inkscape.org/namespaces/inkscape"
   xmlns:sodipodi="http://sodipodi.sourceforge.net/DTD/sodipodi-0.dtd"
   xmlns="http://www.w3.org/2000/svg"
   xmlns:svg="http://www.w3.org/2000/svg">
  <defs
     id="defs1" />
  <sodipodi:namedview
     id="namedview1"
     pagecolor="#ffffff"
     bordercolor="#000000"
     borderopacity="0.25"
     inkscape:showpageshadow="2"
     inkscape:pageopacity="0.0"
     inkscape:pagecheckerboard="0"
     inkscape:deskcolor="#d1d1d1"
     inkscape:zoom="0.65154295"
     inkscape:cx="131.99437"
     inkscape:cy="335.35778"
     inkscape:window-width="1920"
     inkscape:window-height="1050"
     inkscape:window-x="0"
     inkscape:window-y="20"
     inkscape:window-maximized="1"
     inkscape:current-layer="g1" />
  <g
     inkscape:groupmode="layer"
     inkscape:label="Image"
     id="g1"
     transform="translate(-135.44771,-40.567765)">
    <path
       style="fill:#e6e6e6;stroke-width:0.767409"
       d="m 360.90209,262.4897 c -1.16528,-0.91661 -2.41811,-3.22738 -3.22452,-5.94742 -0.72535,-2.44661 -2.17962,-7.38373 -3.23172,-10.97137 -1.05211,-3.58764 -2.55095,-8.59498 -3.33076,-11.12743 -0.77981,-2.53245 -2.16875,-7.19446 -3.08653,-10.36002 -0.91779,-3.16557 -2.29668,-7.82758 -3.06421,-10.36003 -0.76753,-2.53245 -2.31393,-7.71246 -3.43644,-11.51113 -1.12251,-3.79868 -2.67896,-8.97869 -3.45877,-11.51114 -0.77982,-2.53245 -2.16181,-7.19446 -3.0711,-10.36002 -2.88633,-10.04837 -5.46462,-18.70285 -6.51573,-21.87116 -1.01447,-3.05788 -3.41229,-11.00628 -7.06096,-23.40598 -1.05568,-3.58764 -2.39016,-7.90431 -2.96551,-9.59261 -0.57535,-1.6883 -1.56685,-4.96898 -2.20334,-7.29039 -0.63649,-2.32141 -1.85034,-6.46542 -2.69745,-9.20891 -3.2229,-10.437875 -5.57903,-18.208435 -6.98065,-23.022265 -0.79881,-2.74349 -2.14248,-7.23284 -2.98595,-9.97632 -3.04816,-9.91458 -8.67584,-28.8122 -9.02705,-30.31266 -0.21105,-0.90166 0.30671,-2.24713 1.25509,-3.26149 1.60067,-1.71206 1.79847,-1.72667 23.37058,-1.72667 19.58628,0 21.91919,0.13395 23.38991,1.34296 1.26622,1.04091 2.92371,6.26231 7.36915,23.21413 3.15451,12.02914 6.25061,23.59783 6.88021,25.7082 0.6296,2.11038 3.53165,12.988395 6.44899,24.173385 2.91735,11.18499 5.52953,21.19968 5.80485,22.25487 2.36323,9.05715 4.6783,17.6888 7.7184,28.77784 4.44573,16.21617 6.23303,23.02024 7.90223,30.08286 1.8238,7.71676 2.85616,8.44727 3.96535,2.80592 0.48604,-2.47205 1.2428,-5.53065 1.68167,-6.79687 0.43887,-1.26623 1.42145,-4.89224 2.18352,-8.0578 0.76206,-3.16556 2.25683,-9.03624 3.3217,-13.04595 2.35831,-8.8801 7.25239,-27.72273 11.36139,-43.74232 1.67806,-6.54216 3.91946,-15.17552 4.9809,-19.18523 1.06144,-4.00971 2.56479,-9.880385 3.34079,-13.045945 1.25075,-5.10229 5.57966,-21.63769 10.04524,-38.37046 0.84481,-3.16556 2.01268,-7.63823 2.59526,-9.93926 0.58258,-2.30103 1.67239,-4.63203 2.4218,-5.18001 1.04223,-0.7621 6.54697,-0.99632 23.41592,-0.99632 19.03067,0 22.21876,0.16538 23.26,1.20662 1.63051,1.63051 1.6395,1.59472 -10.19842,40.61717 -1.66454,5.48698 -3.7772,12.56633 -4.6948,15.73189 -2.1956,7.574415 -5.19835,17.680315 -6.9546,23.405975 -0.77678,2.53245 -1.80996,5.98579 -2.29596,7.67409 -0.486,1.6883 -1.55649,5.31431 -2.37889,8.0578 -0.82238,2.74348 -2.35767,7.9235 -3.41174,11.51113 -1.05407,3.58764 -2.5762,8.76765 -3.38251,11.51114 -0.80631,2.74349 -2.19272,7.4055 -3.08089,10.36002 -0.88818,2.95453 -2.26406,7.61654 -3.05752,10.36003 -2.41904,8.36411 -8.26877,27.86872 -9.09124,30.31266 -0.42614,1.26622 -1.70015,5.41023 -2.83114,9.20891 -4.28295,14.38513 -8.71301,28.93085 -10.84324,35.60284 -0.99636,3.12063 -2.4141,6.13132 -3.15054,6.69041 -1.04326,0.79204 -6.61259,1.02194 -25.21702,1.04096 -22.54641,0.023 -23.98433,-0.0592 -25.78375,-1.47463 z"
       id="path15" />
    <path
       style="fill:#e6e6e6;stroke-width:0.767409"
       d="m 489.39407,262.7941 c -1.66678,-1.16746 -1.70556,-1.54712 -1.70502,-16.69114 l 5.6e-4,-15.49653 3.68842,-6.13927 c 4.0962,-6.81803 11.22529,-18.47245 19.48132,-31.84748 2.99616,-4.85386 5.82876,-9.52475 6.29468,-10.37974 0.46592,-0.855 4.06246,-6.72568 7.99232,-13.04596 3.92986,-6.32028 7.54891,-12.18208 8.04233,-13.02623 0.49343,-0.84415 2.31958,-3.77949 4.05812,-6.52298 1.73854,-2.74349 5.51765,-8.9595 8.39803,-13.81336 2.88038,-4.85386 6.67645,-11.06988 8.4357,-13.81337 8.48761,-13.23609 23.56018,-38.305315 23.30195,-38.756625 -0.15995,-0.27957 -19.3341,-0.56604 -42.60921,-0.63662 -40.4393,-0.12262 -42.39014,-0.19323 -43.93418,-1.59022 -1.55121,-1.40349 -1.61578,-2.14914 -1.61578,-18.66012 0,-16.83671 0.3415,-19.60043 2.60897,-21.11446 0.4644,-0.3101 32.5092,-0.5691 71.21065,-0.57556 l 70.36626,-0.0118 1.19464,1.70557 c 0.98177,1.40168 1.19462,4.36366 1.19462,16.62373 0,14.6979 -0.0298,14.97013 -2.01511,18.43891 -2.83472,4.95278 -24.52027,40.253415 -27.8452,45.327565 -1.51502,2.31205 -2.92927,4.55672 -3.14278,4.98815 -0.46435,0.93826 -4.28004,7.2669 -8.68965,14.41252 -13.77276,22.31829 -21.7185,35.12049 -23.21533,37.4046 -0.96809,1.47726 -5.04301,8.03861 -9.05537,14.58077 -4.01237,6.54216 -9.81839,15.81202 -12.90228,20.59968 -3.08389,4.78766 -5.72219,9.018 -5.86288,9.40076 -0.15119,0.41133 18.28625,0.69593 45.08529,0.69593 44.31788,0 45.37572,0.0346 46.8759,1.53481 1.43964,1.43964 1.53482,2.55803 1.53482,18.03412 0,15.47608 -0.0952,16.59448 -1.53482,18.03411 -1.51276,1.51276 -2.55802,1.53482 -72.73311,1.53482 -63.19799,0 -71.38994,-0.13424 -72.90386,-1.19463 z"
       id="path16" />
    <path
       style="fill:#e6e6e6;stroke-width:0.767409"
       d="m 660.5263,262.7941 -1.70557,-1.19463 V 152.342 c 0,-100.380305 0.10258,-109.360045 1.26254,-110.520005 1.14931,-1.14931 5.05517,-1.23326 43.55047,-0.93601 46.39985,0.35829 46.2172,0.34164 61.85685,5.63847 21.85563,7.40206 36.46517,23.13225 43.03123,46.33205 1.68822,5.96495 1.84182,7.868805 1.79546,22.254855 -0.0473,14.68347 -0.18167,16.14357 -2.01586,21.90929 -5.50954,17.319 -14.81581,29.36477 -28.27962,36.60428 -3.33749,1.79457 -6.07301,3.7365 -6.07893,4.31537 -0.006,0.57888 4.27039,9.3849 9.50294,19.56893 18.10241,35.2325 31.15897,61.7681 31.15897,63.32616 0,0.86048 -0.66797,1.92201 -1.48437,2.35893 -0.92167,0.49326 -9.61679,0.79441 -22.93725,0.79441 -19.31136,0 -21.61231,-0.13406 -23.04984,-1.34297 -1.52689,-1.28404 -3.28269,-4.58489 -9.69481,-18.22596 -1.5872,-3.3766 -4.36044,-9.24728 -6.16275,-13.04596 -1.80231,-3.79867 -5.69381,-12.08669 -8.64777,-18.41782 -2.95397,-6.33112 -7.12541,-15.22347 -9.26988,-19.76078 l -3.89904,-8.24965 H 718.31329 707.1675 v 37.63793 37.63793 l -1.88364,1.88364 -1.88364,1.88364 h -20.58418 c -17.38825,0 -20.84898,-0.18548 -22.28974,-1.19463 z m 81.55832,-117.38111 c 10.6755,-2.75165 16.2611,-7.19512 20.60729,-16.39358 2.25473,-4.77201 2.402,-5.62252 2.40829,-13.90805 0.006,-7.5597 -0.2592,-9.48546 -1.84755,-13.42966 -4.43056,-11.001985 -11.6895,-17.022105 -22.67518,-18.805405 -2.54767,-0.41356 -11.10714,-0.75453 -19.02105,-0.75772 l -14.38892,-0.006 v 32.736685 32.7367 l 15.15633,-0.49318 c 9.63045,-0.31338 16.83508,-0.92588 19.76079,-1.67999 z"
       id="path17" />
    <path
       style="fill:#e6e6e6;stroke-width:0.767409"
       d="m 136.98253,262.45391 c -1.52034,-1.52034 -1.53482,-2.55803 -1.53482,-109.98944 V 44.009855 l 1.83197,-1.72104 1.83197,-1.72105 42.48591,0.28868 c 40.86026,0.27763 42.79081,0.35584 50.45466,2.04407 11.69655,2.57657 22.12897,6.7849 28.48318,11.48984 15.49228,11.47116 23.93642,25.09534 27.64603,44.60542 0.36114,1.899335 0.65661,8.460685 0.65661,14.580765 0,11.17693 -0.32397,14.13328 -2.4809,22.63857 -2.66944,10.5263 -9.03595,21.18714 -17.30577,28.97887 -4.4975,4.2375 -13.69793,10.5427 -15.38369,10.5427 -0.34014,0 -1.02393,0.48858 -1.51951,1.08572 -0.72118,0.86897 3.25914,9.38082 19.93736,42.63568 20.1306,40.1386 20.79262,41.60058 19.48969,43.0403 -1.2748,1.40864 -2.53935,1.49035 -23.06485,1.49035 -14.6048,0 -22.34409,-0.28612 -23.63377,-0.87374 -1.05471,-0.48055 -2.5072,-2.12089 -3.22778,-3.64519 -0.72057,-1.5243 -3.49988,-7.3847 -6.17625,-13.02311 -2.67637,-5.63841 -4.86613,-10.35419 -4.86613,-10.47952 0,-0.12533 -1.6923,-3.8001 -3.76068,-8.16617 -2.06837,-4.36606 -5.56166,-11.90964 -7.76284,-16.7635 -2.20119,-4.85386 -5.84475,-12.71021 -8.0968,-17.45856 l -4.09463,-8.63335 h -11.93221 -11.9322 v 37.98675 c 0,36.96354 -0.0413,38.02809 -1.53482,39.52157 -1.45903,1.45902 -2.55803,1.53482 -22.25487,1.53482 -19.69683,0 -20.79584,-0.0758 -22.25486,-1.53482 z m 83.26389,-117.00142 c 15.42762,-4.10887 22.6782,-13.37957 23.27645,-29.76161 0.22091,-6.04913 -0.0306,-8.37764 -1.31615,-12.18432 -4.11358,-12.180965 -12.02485,-18.815235 -24.60825,-20.636085 -2.76438,-0.40001 -11.67382,-0.73414 -19.79877,-0.7425 l -14.77262,-0.0152 v 32.727675 32.72768 l 16.30744,-0.44467 c 11.24728,-0.30668 17.73619,-0.82518 20.9119,-1.67097 z"
       id="path18" />
    <path
       style="fill:none;stroke-width:0.54264"
       d="M -131.04761,447.13551 V 68.372664 H 479.96525 1090.9781 V 447.13551 825.89837 H 479.96525 -131.04761 Z m 548.46793,270.3364 c 1.35123,-0.75199 2.45518,-2.63984 3.60471,-6.16407 1.38943,-4.25967 5.12567,-16.36266 6.75554,-21.88348 0.88109,-2.98452 4.41709,-14.70555 7.85786,-26.04673 3.44072,-11.34118 9.71364,-32.34136 13.93983,-46.66706 9.71462,-32.93024 17.79274,-60.07715 26.40108,-88.72167 9.55345,-31.78948 9.50022,-31.48822 5.74525,-32.53104 -2.19519,-0.60965 -40.47238,-0.69718 -43.21396,-0.0988 -2.3072,0.50355 -3.36584,2.36801 -5.12442,9.02502 -0.86725,3.28298 -2.73659,10.36443 -4.15397,15.73657 -1.41743,5.37214 -3.25541,12.3315 -4.08434,15.46525 -0.82894,3.13374 -2.90134,11.19195 -4.60539,17.90712 -1.70405,6.71517 -3.92736,15.38385 -4.94074,19.26373 -1.01338,3.87988 -2.57607,9.86248 -3.47262,13.29468 -0.89661,3.4322 -4.31214,16.61836 -7.5901,29.30257 -6.15357,23.81154 -9.37063,36.17017 -10.36425,39.81514 -0.39681,1.45569 -0.74646,1.92811 -1.13753,1.53703 -0.31055,-0.31055 -2.09329,-6.38427 -3.96163,-13.49709 -1.86836,-7.11287 -4.42147,-16.71739 -5.67361,-21.34339 -2.65978,-9.82662 -8.67191,-32.45823 -13.83871,-52.09346 -2.00263,-7.61053 -5.83284,-22.01763 -8.51159,-32.01577 -11.04663,-41.23046 -10.72072,-40.15919 -12.72354,-41.82282 -0.76315,-0.63391 -4.68387,-0.80588 -21.60573,-0.94769 -13.6308,-0.11423 -21.3438,0.025 -22.64135,0.40871 -2.94718,0.87152 -3.88017,3.10866 -2.82142,6.7652 0.44063,1.52178 3.24314,10.94717 6.22781,20.94531 4.99068,16.71796 8.05117,26.88763 17.55512,58.33382 9.4387,31.2303 13.89007,46.00194 15.12576,50.19422 0.74775,2.53684 3.83245,12.91484 6.8549,23.06221 3.02244,10.14737 6.83622,22.96724 8.47507,28.48861 1.63885,5.52136 3.67707,12.35863 4.52939,15.19392 5.61576,18.6811 5.70925,18.86738 9.82873,19.58362 4.14983,0.72144 46.16498,0.28901 47.56385,-0.48963 z m 223.01161,0.0252 c 2.1234,-1.21405 2.40552,-3.75778 2.22433,-20.05462 -0.2049,-18.4273 0.14245,-17.53938 -7.09605,-18.14155 -2.45832,-0.20446 -22.7083,-0.39119 -45.00001,-0.41495 -22.29166,-0.0237 -40.65601,-0.24653 -40.80969,-0.49511 -0.15362,-0.24864 0.28505,-1.28644 0.9748,-2.30622 2.6095,-3.85823 36.80365,-58.83001 49.5902,-79.72312 4.47494,-7.31208 9.43098,-15.37029 11.01338,-17.90713 7.26622,-11.64891 20.76342,-33.57108 25.09211,-40.75454 5.86198,-9.72801 6.03796,-10.59447 5.64845,-27.80922 -0.24256,-10.72089 -0.37116,-11.99562 -1.34108,-13.29468 l -1.0728,-1.43683 h -69.94198 c -38.46809,0 -70.5945,0.18303 -71.39207,0.40674 -2.59768,0.72862 -2.87111,2.72595 -2.88159,21.0501 -0.0105,18.49015 0.085,19.01587 3.58105,19.71509 0.97062,0.19412 20.16635,0.51238 42.65727,0.70723 22.49086,0.19487 41.0141,0.55107 41.16273,0.79158 0.14863,0.2405 -0.1349,1.22074 -0.63006,2.17829 -1.26847,2.45293 -11.8989,20.0215 -19.33302,31.951 -3.44636,5.5304 -9.30454,15.05374 -13.01821,21.16297 -3.71361,6.10922 -11.41541,18.67751 -17.11503,27.92953 -5.69968,9.25201 -16.85115,27.44402 -24.78108,40.42669 l -14.41806,23.60485 0.006,13.566 c 0.006,13.22697 0.34371,17.13028 1.59173,18.38047 1.09369,1.09554 12.30116,1.26799 78.69894,1.21085 51.68235,-0.0445 65.64004,-0.20029 66.58993,-0.74342 z m 70.95129,-0.95884 1.91731,-1.91737 v -37.70638 -37.70644 l 11.18077,0.14668 11.18083,0.14667 6.23429,13.29469 c 26.26612,56.01267 28.98279,61.60979 30.77963,63.41483 0.70218,0.70538 2.34226,1.48835 3.64465,1.73992 2.85645,0.55181 33.20073,0.58448 39.16212,0.0422 4.43316,-0.40329 5.23653,-0.894 5.25216,-3.20825 0.005,-0.67586 -9.14875,-19.45105 -20.3407,-41.72257 -11.19196,-22.27158 -20.34901,-40.69471 -20.34901,-40.94041 0,-0.24566 2.13665,-1.70422 4.7481,-3.24119 7.16529,-4.21719 10.92389,-7.05335 14.81809,-11.18132 7.77929,-8.24647 14.10311,-20.63703 16.29082,-31.91924 0.97393,-5.02277 1.011,-28.42499 0.0528,-33.37237 -1.04122,-5.3764 -3.74091,-13.31825 -6.28193,-18.47996 -8.22251,-16.70282 -20.94591,-27.47485 -39.93804,-33.81285 -13.71947,-4.57841 -17.51008,-4.86647 -64.68901,-4.91601 -35.62113,-0.0374 -37.88497,0.0168 -38.79877,0.92925 -0.92482,0.92343 -0.97703,6.1187 -1.11003,110.54175 l -0.13956,109.57278 1.22484,0.66978 c 2.22358,1.21589 5.37936,1.40663 24.40465,1.47522 l 18.83862,0.0679 z m -524.24919,0.25287 1.42613,-1.1218 0.13931,-38.08395 0.13932,-38.08396 12.35461,-0.14586 12.35461,-0.14586 0.48002,1.23114 c 0.26402,0.67711 2.21323,4.83899 4.33158,9.2486 2.11835,4.4096 3.85155,8.13005 3.85155,8.26766 0,0.13762 1.34303,3.07601 2.98452,6.52981 1.64148,3.45385 2.98452,6.39214 2.98452,6.52959 0,0.1375 1.22094,2.78119 2.7132,5.875 1.49226,3.09376 2.7132,5.75367 2.7132,5.91093 0,0.15725 1.83141,4.10583 4.0698,8.77465 2.23839,4.66877 4.0698,8.59119 4.0698,8.71648 0,0.1253 1.69055,3.75866 3.75677,8.07417 3.03372,6.33608 4.07294,8.00974 5.39946,8.69575 2.46139,1.27282 44.25574,1.2771 46.07233,0.005 0.66331,-0.46461 1.20602,-1.28557 1.20602,-1.82441 0,-0.53884 -9.12373,-19.14429 -20.27495,-41.34555 -11.15123,-22.2012 -20.42703,-40.85424 -20.61289,-41.45114 -0.28242,-0.90697 0.23114,-1.37999 3.12582,-2.87903 13.51115,-6.99702 24.83325,-19.31039 29.28592,-31.84994 0.52989,-1.49226 1.16827,-3.20158 1.41863,-3.79848 0.46538,-1.10954 0.76462,-2.15346 1.71104,-5.96905 2.50463,-10.09768 2.7245,-29.39613 0.4374,-38.39179 -2.03683,-8.01127 -2.22482,-8.54542 -5.27729,-14.99478 -3.95365,-8.3534 -7.6668,-13.56671 -13.8146,-19.39584 -9.9544,-9.43844 -22.99668,-15.55282 -38.67402,-18.13085 -8.32906,-1.36965 -16.84859,-1.60686 -52.97325,-1.47491 l -38.14718,0.13934 -1.2425,1.84383 -1.2425,1.84383 V 606.7879 c 0,80.61087 0.15745,107.69383 0.63127,108.58343 1.33841,2.51297 1.27973,2.50645 22.76474,2.52463 19.82478,0.0168 20.45248,-0.015 21.83761,-1.10454 z m 486.44518,-270.4925 c 18.62401,-1.70634 26.83193,-3.16323 36.94739,-6.55805 13.19479,-4.42827 22.35401,-9.99859 31.54655,-19.18555 11.34547,-11.33855 18.02505,-23.54543 25.24417,-46.13331 4.93244,-15.43319 7.42538,-25.97237 13.2497,-56.0148 0.90995,-4.69358 2.1736,-9.94363 2.80805,-11.66677 1.70476,-4.62984 4.91019,-7.4612 11.73248,-10.36318 6.92859,-2.94721 8.56048,-4.60185 9.01081,-9.13649 1.2796,-12.88445 0.73593,-32.05168 -0.98359,-34.676 -2.16052,-3.29736 -8.40034,-4.64852 -42.35323,-9.17111 -38.41681,-5.11719 -63.99583,-6.78334 -104.18691,-6.78647 -46.88097,-0.004 -76.1302,3.05961 -100.89771,10.56698 -11.35789,3.44273 -18.98215,6.7934 -31.5065,13.8463 -3.58142,2.01682 -7.24707,3.82294 -8.14584,4.0136 -0.89883,0.19065 -8.71285,0.0945 -17.36449,-0.21368 -22.08236,-0.78659 -39.71654,-0.78695 -54.27075,-10e-4 -9.54835,0.51556 -13.18501,0.52634 -15.42612,0.0457 -1.61278,-0.34589 -6.24654,-2.38876 -10.29719,-4.53972 -16.66841,-8.85123 -27.26139,-12.76711 -45.01365,-16.64009 -7.97084,-1.73899 -23.22612,-4.11862 -31.53774,-4.91949 -32.70656,-3.15147 -95.21113,-2.62636 -128.60573,1.08044 -15.71184,1.74401 -32.91686,3.96065 -42.05461,5.41818 -20.50587,3.27081 -25.41419,4.36456 -27.22637,6.06701 -2.39064,2.24589 -2.61954,4.0718 -2.60785,20.803 0.0118,16.87635 0.22987,18.54264 2.75785,21.07061 0.74772,0.74774 3.61617,2.2339 6.37433,3.3026 9.14003,3.54147 10.85141,6.49942 14.46833,25.00705 4.32672,22.13961 9.39851,42.57069 12.96701,52.236 0.91046,2.46601 2.25138,6.25093 2.9798,8.41092 1.66427,4.93509 6.91681,15.94908 10.71838,22.47522 5.59081,9.59775 14.64111,19.50774 22.91313,25.08963 17.92658,12.09673 43.79629,17.40996 84.71847,17.39982 33.36879,-0.008 51.662,-2.76841 70.27346,-10.60311 29.22012,-12.30053 48.91247,-38.47721 61.00548,-81.09347 2.77614,-9.78316 4.48741,-17.76543 6.33087,-29.53001 1.86147,-11.87954 2.9143,-16.55554 4.38274,-19.46578 1.52276,-3.01772 5.02029,-6.26513 8.5098,-7.90114 l 3.06483,-1.43689 h 19.53504 c 19.02345,0 19.61433,0.0321 22.5626,1.22528 8.25714,3.3417 10.10418,7.29122 13.51136,28.89125 3.98483,25.26171 11.52384,48.38058 21.83541,66.95987 11.72825,21.13189 28.3084,36.31424 47.57978,43.5686 13.844,5.21134 33.88544,8.4675 59.20215,9.61866 7.54183,0.34293 27.21129,-0.23254 36.24831,-1.06052 z"
       id="path19" />
    <path
       style="fill:#e6e6e6;stroke-width:1.08528"
       d="m 136.79216,262.84707 c -0.99569,-0.99568 -1.30234,-27.03012 -1.30234,-110.56571 0,-93.319985 0.226,-109.450935 1.54885,-110.548805 1.15442,-0.95808 12.69334,-1.18622 45.31046,-0.89584 37.43057,0.33323 45.01767,0.67502 52.44384,2.36253 22.24185,5.0542 37.9885,16.99402 47.28221,35.8515 5.32133,10.79732 7.48112,20.74591 7.50561,34.573095 0.0468,26.43775 -11.23194,48.35458 -30.76176,59.77604 -6.97234,4.07758 -7.08868,4.22012 -5.80301,7.1094 0.72161,1.62163 9.40223,19.02844 19.2903,38.68182 21.34425,42.42355 21.44091,42.64296 19.36574,43.95665 -0.84138,0.53263 -11.55492,0.9759 -23.80787,0.98504 -18.42605,0.0137 -22.69514,-0.27551 -24.69013,-1.67284 -1.32662,-0.9292 -2.41204,-2.11141 -2.41204,-2.62712 0,-0.51572 -4.07274,-9.64508 -9.05054,-20.28748 -4.97779,-10.64239 -12.61384,-27.04172 -16.96899,-36.44296 l -7.91846,-17.09317 h -11.79094 -11.79093 v 37.76776 c 0,27.92788 -0.33931,38.10706 -1.30234,39.07009 -1.8392,1.83921 -43.30846,1.83921 -45.14766,0 z m 79.3276,-117.01709 c 18.28987,-2.64455 27.45745,-14.03721 26.61696,-33.07718 -0.45851,-10.38683 -3.50946,-17.350075 -10.05782,-22.955235 -6.38095,-5.46186 -12.78168,-6.9809 -32.34358,-7.67587 l -17.09316,-0.60726 v 32.712345 32.71235 l 12.75204,-0.0215 c 7.01362,-0.0118 16.07013,-0.50126 20.12556,-1.08765 z"
       id="path34" />
  </g>
</svg>
