<?xml version="1.0" encoding="UTF-8" standalone="no"?>
<!-- Created with Inkscape (http://www.inkscape.org/) -->

<svg
   version="1.1"
   id="svg1"
   width="64"
   height="64"
   viewBox="0 0 63.999999 64.000001"
   sodipodi:docname="favicon.svg"
   inkscape:version="1.4 (e7c3feb100, 2024-10-09)"
   xmlns:inkscape="http://www.inkscape.org/namespaces/inkscape"
   xmlns:sodipodi="http://sodipodi.sourceforge.net/DTD/sodipodi-0.dtd"
   xmlns="http://www.w3.org/2000/svg"
   xmlns:svg="http://www.w3.org/2000/svg">
  <defs
     id="defs1" />
  <sodipodi:namedview
     id="namedview1"
     pagecolor="#ffffff"
     bordercolor="#000000"
     borderopacity="0.25"
     inkscape:showpageshadow="2"
     inkscape:pageopacity="0.0"
     inkscape:pagecheckerboard="0"
     inkscape:deskcolor="#d1d1d1"
     inkscape:zoom="5.2123436"
     inkscape:cx="27.243024"
     inkscape:cy="52.663451"
     inkscape:window-width="1920"
     inkscape:window-height="1050"
     inkscape:window-x="0"
     inkscape:window-y="20"
     inkscape:window-maximized="1"
     inkscape:current-layer="g1" />
  <g
     inkscape:groupmode="layer"
     inkscape:label="Image"
     id="g1"
     transform="translate(-135.46876,-40.567765)">
    <rect
       style="fill:#ffffff;fill-opacity:1"
       id="rect1"
       width="63.88681"
       height="63.88681"
       x="135.66061"
       y="40.759617" />
    <path
       style="fill:#333333;stroke-width:0.0965562"
       d="m 176.14871,70.910007 c -0.15672,-0.107891 -0.32523,-0.379883 -0.43368,-0.700047 -0.0976,-0.28798 -0.29314,-0.869108 -0.43466,-1.291394 -0.14149,-0.422287 -0.34308,-1.011679 -0.44797,-1.309764 -0.10488,-0.298082 -0.29169,-0.846826 -0.41512,-1.219433 -0.12345,-0.372604 -0.3089,-0.921351 -0.41214,-1.219435 -0.10322,-0.298083 -0.31119,-0.907801 -0.46217,-1.354926 -0.15098,-0.447127 -0.36033,-1.056844 -0.46521,-1.354927 -0.10487,-0.298084 -0.29074,-0.84683 -0.41304,-1.219433 -0.3882,-1.182752 -0.73498,-2.201435 -0.87634,-2.574363 -0.13644,-0.359929 -0.45895,-1.295502 -0.94968,-2.755019 -0.14198,-0.422286 -0.32147,-0.930382 -0.39884,-1.129105 -0.0773,-0.198722 -0.21073,-0.584878 -0.29634,-0.858122 -0.0856,-0.273242 -0.24886,-0.761016 -0.3628,-1.083941 -0.43347,-1.228598 -0.75037,-2.143237 -0.93887,-2.709853 -0.10743,-0.322925 -0.28816,-0.851347 -0.4016,-1.17427 -0.40997,-1.167003 -1.16687,-3.391362 -1.21411,-3.567976 -0.0283,-0.106129 0.0412,-0.2645 0.16881,-0.383895 0.21528,-0.201519 0.24188,-0.203239 3.14324,-0.203239 2.6343,0 2.94806,0.01576 3.14587,0.158074 0.17031,0.122521 0.39322,0.73711 0.99111,2.732436 0.42428,1.4159 0.84069,2.777602 0.92537,3.026004 0.0847,0.248403 0.475,1.528809 0.86737,2.845346 0.39238,1.316539 0.7437,2.495326 0.78073,2.619526 0.31785,1.06608 0.62921,2.082075 1.03809,3.387319 0.59793,1.908736 0.83832,2.709615 1.06283,3.540925 0.24529,0.908309 0.38414,0.994292 0.53332,0.330274 0.0652,-0.290975 0.16715,-0.65099 0.22617,-0.80003 0.0591,-0.149043 0.19118,-0.575847 0.29368,-0.94845 0.1025,-0.372605 0.30354,-1.063617 0.44677,-1.535584 0.31717,-1.04524 0.97541,-3.263125 1.52805,-5.148723 0.22571,-0.770051 0.52716,-1.786246 0.66991,-2.258213 0.14275,-0.471966 0.34496,-1.162977 0.44934,-1.535582 0.1682,-0.600569 0.75043,-2.546881 1.35104,-4.516424 0.11362,-0.372605 0.27069,-0.899065 0.34905,-1.169908 0.0784,-0.270845 0.22493,-0.545217 0.32572,-0.609718 0.14018,-0.0897 0.88055,-0.117272 3.14935,-0.117272 2.55955,0 2.98834,0.01946 3.12839,0.142026 0.2193,0.191921 0.22051,0.187708 -1.37166,4.780874 -0.22386,0.645849 -0.50801,1.479131 -0.63142,1.851735 -0.29531,0.891551 -0.69916,2.081075 -0.93537,2.755018 -0.10448,0.298084 -0.24344,0.704562 -0.3088,0.903284 -0.0652,0.198723 -0.20933,0.625525 -0.31994,0.948449 -0.11062,0.322925 -0.31712,0.932642 -0.45888,1.354928 -0.14177,0.422285 -0.34648,1.032002 -0.45493,1.354927 -0.10845,0.322925 -0.29492,0.87167 -0.41437,1.219434 -0.11947,0.347765 -0.30451,0.896511 -0.41123,1.219436 -0.32534,0.984503 -1.11211,3.280307 -1.22274,3.567974 -0.0573,0.149043 -0.22866,0.636815 -0.38079,1.083941 -0.57602,1.693214 -1.17184,3.405328 -1.45836,4.19066 -0.13401,0.367316 -0.32468,0.721691 -0.42373,0.7875 -0.14031,0.09323 -0.88937,0.120289 -3.39159,0.122526 -3.03243,0.0027 -3.22581,-0.0069 -3.46783,-0.17357 z"
       id="path15" />
    <path
       style="fill:#333333;stroke-width:0.0965562"
       d="m 146.60692,99.489634 c -0.22418,-0.137423 -0.22939,-0.182107 -0.22932,-1.964644 l 7e-5,-1.824031 0.49608,-0.722631 c 0.55092,-0.802518 1.50976,-2.174308 2.62017,-3.748629 0.40298,-0.571326 0.78394,-1.121117 0.84661,-1.221754 0.0627,-0.100638 0.54638,-0.791653 1.07494,-1.535587 0.52854,-0.743931 1.01529,-1.4339 1.08166,-1.53326 0.0664,-0.09936 0.31197,-0.444869 0.54581,-0.767793 0.23382,-0.322925 0.74209,-1.054586 1.12949,-1.625912 0.3874,-0.571328 0.89795,-1.302989 1.13457,-1.625914 1.14155,-1.557963 3.16876,-4.508755 3.13402,-4.561876 -0.0215,-0.03291 -2.60037,-0.06663 -5.73079,-0.07494 -5.43892,-0.01442 -5.70131,-0.02275 -5.90896,-0.187177 -0.20864,-0.165198 -0.21732,-0.252966 -0.21732,-2.196404 0,-1.981777 0.0458,-2.307083 0.3509,-2.485293 0.0624,-0.0365 4.37236,-0.06699 9.57756,-0.06775 l 9.464,-0.0013 0.16067,0.200757 c 0.13205,0.164986 0.16068,0.513627 0.16068,1.956708 0,1.730029 -0.004,1.762071 -0.27104,2.170366 -0.38126,0.582972 -3.29787,4.738059 -3.74506,5.335316 -0.20377,0.272142 -0.39399,0.536351 -0.42271,0.587135 -0.0624,0.110437 -0.57563,0.855354 -1.16871,1.696435 -1.85239,2.626991 -2.92105,4.133885 -3.12238,4.402738 -0.1302,0.173883 -0.67827,0.946191 -1.21792,1.71624 -0.53964,0.77005 -1.32053,1.861168 -1.73529,2.424696 -0.41479,0.563536 -0.76962,1.061474 -0.78856,1.106529 -0.0203,0.04846 2.45945,0.0819 6.06382,0.0819 5.96058,0 6.10287,0.004 6.30462,0.180662 0.19363,0.169453 0.20643,0.301094 0.20643,2.122719 0,1.821612 -0.0127,1.953251 -0.20643,2.122715 -0.20346,0.178054 -0.34404,0.180646 -9.78232,0.180646 -8.4999,0 -9.60168,-0.01573 -9.80529,-0.140616 z"
       id="path16" />
    <path
       style="fill:#333333;stroke-width:0.0965562"
       d="m 169.31474,99.489634 -0.22938,-0.140616 V 86.488785 c 0,-11.815341 0.0138,-12.872307 0.16979,-13.008841 0.15459,-0.135281 0.67992,-0.145162 5.85739,-0.110174 6.2406,0.04217 6.21603,0.04021 8.3195,0.66368 2.93951,0.871265 4.90442,2.722799 5.78754,5.45355 0.22706,0.702109 0.24772,0.926203 0.24148,2.619523 -0.007,1.72833 -0.0245,1.900193 -0.27111,2.57885 -0.74103,2.038547 -1.99269,3.456402 -3.80351,4.308534 -0.44887,0.211233 -0.8168,0.439808 -0.81759,0.507945 -7.7e-4,0.06814 0.57434,1.104657 1.2781,2.303376 2.43471,4.147066 4.19076,7.270462 4.19076,7.453847 0,0.101281 -0.0898,0.226228 -0.19963,0.277669 -0.12397,0.05812 -1.29343,0.09351 -3.08498,0.09351 -2.59731,0 -2.90678,-0.01573 -3.10011,-0.158081 -0.20537,-0.151139 -0.44151,-0.539658 -1.30393,-2.145298 -0.21345,-0.397446 -0.58646,-1.088451 -0.82886,-1.535585 -0.2424,-0.447122 -0.7658,-1.422669 -1.1631,-2.167883 -0.39729,-0.745206 -0.95833,-1.79189 -1.24676,-2.325957 l -0.5244,-0.971032 h -1.49905 -1.49908 v 4.4302 4.430205 l -0.25335,0.22172 -0.25334,0.221711 h -2.7685 c -2.33865,0 -2.8041,-0.02184 -2.99788,-0.140616 z m 10.96929,-13.816435 c 1.43581,-0.323884 2.18704,-0.846906 2.77161,-1.929618 0.30325,-0.561693 0.32306,-0.661802 0.3239,-1.637058 7.6e-4,-0.889819 -0.0349,-1.116492 -0.24849,-1.580748 -0.59589,-1.294996 -1.5722,-2.003598 -3.04973,-2.213504 -0.34265,-0.04868 -1.49387,-0.08881 -2.55826,-0.08919 l -1.93525,-7.07e-4 v 3.853297 3.853296 l 2.03847,-0.05805 c 1.29525,-0.03687 2.26425,-0.10898 2.65775,-0.197743 z"
       id="path17" />
    <path
       style="fill:#333333;stroke-width:0.13655"
       d="m 146.00395,70.952069 c -0.13394,-0.117197 -0.17517,-3.181599 -0.17517,-13.014221 0,-10.9843 0.0304,-12.883005 0.20832,-13.01223 0.15526,-0.112773 1.70721,-0.139626 6.09409,-0.105446 5.03426,0.03922 6.0547,0.07945 7.05349,0.278083 2.99144,0.594908 5.10931,2.000294 6.35928,4.219929 0.7157,1.270906 1.00618,2.441912 1.00948,4.069453 0.007,3.111875 -1.51065,5.691612 -4.13734,7.035983 -0.93776,0.479955 -0.95341,0.496732 -0.78049,0.836818 0.097,0.190876 1.26457,2.239756 2.59446,4.553074 2.87073,4.993495 2.88374,5.019321 2.60463,5.17395 -0.11315,0.06269 -1.55408,0.11487 -3.20206,0.115944 -2.47824,0.0017 -3.05242,-0.03242 -3.32074,-0.196902 -0.17842,-0.109373 -0.3244,-0.248526 -0.3244,-0.309227 0,-0.06071 -0.54777,-1.135282 -1.21727,-2.387954 -0.66949,-1.25267 -1.69652,-3.182967 -2.28227,-4.289546 l -1.065,-2.011964 h -1.58583 -1.58584 v 4.445482 c 0,3.287271 -0.0455,4.485422 -0.17516,4.598774 -0.24737,0.216487 -5.82482,0.216487 -6.07218,0 z M 156.6732,57.178484 c 2.45992,-0.311278 3.69293,-1.65226 3.57988,-3.893375 -0.0617,-1.22259 -0.47201,-2.042203 -1.35273,-2.701962 -0.85822,-0.642893 -1.71908,-0.821694 -4.35009,-0.903497 l -2.29897,-0.07148 v 3.850433 3.850432 l 1.7151,-0.0026 c 0.94331,-0.0013 2.16138,-0.05899 2.70681,-0.128022 z"
       id="path34" />
  </g>
</svg>
